<?xml version="1.0" standalone="no"?>
<!DOCTYPE svg PUBLIC "-//W3C//DTD SVG 20010904//EN"
 "http://www.w3.org/TR/2001/REC-SVG-20010904/DTD/svg10.dtd">
<svg version="1.0" xmlns="http://www.w3.org/2000/svg"
 width="260.000000pt" height="260.000000pt" viewBox="0 0 260.000000 260.000000"
 preserveAspectRatio="xMidYMid meet">
<metadata>
Created by potrace 1.14, written by Peter Selinger 2001-2017
</metadata>
<g transform="translate(0.000000,260.000000) scale(0.100000,-0.100000)"
fill="#000000" stroke="none">
<path d="M15 2578 c-3 -7 -4 -587 -3 -1288 l3 -1275 1285 0 1285 0 0 1285 0
1285 -1283 3 c-1021 2 -1284 0 -1287 -10z m1175 -555 l93 -207 -27 -22 c-14
-13 -26 -27 -26 -32 0 -5 49 -79 108 -163 60 -85 111 -159 115 -166 4 -7 -9
-23 -32 -40 l-39 -29 154 -294 c84 -162 154 -298 154 -303 0 -7 -525 447 -534
462 -3 4 16 22 41 40 46 33 46 33 26 50 -12 9 -83 70 -158 136 l-137 120 24
20 c13 11 38 31 56 45 l32 26 -164 144 c-91 80 -164 148 -163 152 2 8 367 265
378 267 3 1 48 -92 99 -206z m365 -1533 c-10 -11 -29 -20 -43 -20 -24 0 -25 1
-7 20 10 11 29 20 43 20 24 0 25 -1 7 -20z m-669 -90 c9 -56 21 -58 28 -5 7
42 9 45 37 45 l29 0 0 -120 c0 -113 -1 -120 -20 -120 -18 0 -20 7 -21 88 -1
79 -2 83 -11 45 -7 -31 -14 -43 -27 -43 -14 0 -21 12 -28 53 -10 51 -10 50
-12 -45 -1 -91 -2 -98 -21 -98 -19 0 -20 7 -20 120 l0 120 30 0 c27 0 30 -4
36 -40z m294 20 c0 -15 -7 -20 -25 -20 -25 0 -25 -1 -25 -80 0 -79 0 -80 25
-80 18 0 25 -5 25 -20 0 -18 -7 -20 -75 -20 -68 0 -75 2 -75 20 0 15 7 20 25
20 25 0 25 1 25 80 0 79 0 80 -25 80 -18 0 -25 5 -25 20 0 18 7 20 75 20 68 0
75 -2 75 -20z m90 -80 l0 -100 65 0 c58 0 65 -2 65 -20 0 -18 -7 -20 -85 -20
l-85 0 0 120 c0 113 1 120 20 120 19 0 20 -7 20 -100z m289 28 c12 -40 28 -94
36 -120 14 -48 14 -48 -9 -48 -17 0 -26 7 -30 25 -5 21 -12 25 -45 25 -33 0
-40 -4 -45 -25 -4 -16 -13 -25 -26 -25 -26 0 -26 2 12 131 30 103 33 109 59
109 24 0 28 -6 48 -72z m163 -20 l26 -93 1 93 c1 85 3 92 21 92 19 0 20 -7 20
-120 l0 -120 -29 0 c-27 0 -29 4 -54 88 l-25 87 -1 -87 c-1 -81 -3 -88 -21
-88 -19 0 -20 7 -20 120 l0 120 28 0 c28 0 30 -4 54 -92z m221 -110 c7 -21 -4
-38 -23 -38 -23 0 -34 16 -26 35 7 18 43 20 49 3z"/>
<path d="M1493 335 c-10 -45 -10 -45 17 -45 27 0 27 0 17 45 -6 25 -13 45 -17
45 -4 0 -11 -20 -17 -45z"/>
</g>
</svg>
